/* XPM */
static char * zizi_copter12_xpm[] = {
"88 88 61 1",
" 	c None",
".	c #CCCCCC",
"+	c #D0CFCD",
"@	c #C5C4C5",
"#	c #A19D99",
"$	c #5F5C5A",
"%	c #56524F",
"&	c #2F2C2B",
"*	c #0C0A09",
"=	c #121110",
"-	c #363431",
";	c #817E7A",
">	c #BBB8B6",
",	c #CAC8C6",
"'	c #85817D",
")	c #000001",
"!	c #070607",
"~	c #282523",
"{	c #8A8785",
"]	c #181718",
"^	c #080807",
"/	c #B6B3B0",
"(	c #A7A3A0",
"_	c #6E6B67",
":	c #96928F",
"<	c #928E8A",
"[	c #201F1D",
"}	c #B2AEAA",
"|	c #999693",
"1	c #827FAE",
"2	c #414098",
"3	c #6C6AA7",
"4	c #B2AFBF",
"5	c #433E3B",
"6	c #7B77A8",
"7	c #090986",
"8	c #010083",
"9	c #302F93",
"0	c #A4A0B9",
"a	c #C1BEBD",
"b	c #666361",
"c	c #5F5DA2",
"d	c #53509E",
"e	c #7D7A76",
"f	c #8E8BB3",
"g	c #181789",
"h	c #040453",
"i	c #05052F",
"j	c #21208E",
"k	c #4F4B48",
"l	c #3B393B",
"m	c #9D9A99",
"n	c #ADAAA7",
"o	c #9D9995",
"p	c #181715",
"q	c #494644",
"r	c #1E1B19",
"s	c #76726F",
"t	c #94908C",
"u	c #1E0D05",
"v	c #200F07",
"                                                                                        ",
"                                                                                        ",
"                                                                                        ",
"                                                                                        ",
"                                                                                        ",
"                                                                                        ",
"                                                                                        ",
"                                                                                        ",
"                                                 .+.+++..                               ",
"                                            .@#$%&****=*-;>.                            ",
"                                         .,'&))!~-${'{{%]))^-{,.                        ",
"                                        ./%=)!-'>@,..+.,(%]))='.                        ",
"                                       ,_)!&:,            +,<[)=;.                      ",
"                                     .}[)[|,12234      ..@.. +{^)5>...                  ",
"                                     ._!)_,6788790+   .43226. a%)!bcd4                  ",
"                                 @04.e)!_@287f4c78d@.0988g782@ ._h8873.                 ",
"                                @98887889278c+ +f7834g82@ d8g1c9788889a                 ",
"                                a98878888888c, ,38764g83..c8878888hih&:..               ",
"                                a98d'!!_.>j8d++17888888914f78c04,k)=-*)!5|@.            ",
"                                @98jb)=( a98940988g22788820g81++al)&/'~))=k}...         ",
"                                 0g8h))_..4288872>. ..498g987f..{*)'.  a{l))!5m,        ",
"                                  .,ak)={. ..@@..     .>988g1..n~)-a.    .,n%^))&',.    ",
"                                    .:=)5a             .0ddf. .{^)_.       .@{~))=%}.   ",
"                                     .op)~}.                .ak!)%@            .:l))=%/.",
"                                       >q))r<+.           .>s])rm.              @{5^)^s+",
"                                       ./q^)rs/+.       ..>k))p{,.            .@_=))=ba.",
"                                          ,{[))!~%ssss_-~!))k(.          ../{$r))&t@+   ",
"                                            .,(bl]]*))=~%_n,.        +.(5*)))=&sa.      ",
"                                              .+a((k)]|n,+.        .,(b[))=&b:/.        ",
"                                                  /[)$,        +./(5)))&$#.             ",
"                                                  /r)_.      +,(b&]))=b/+.              ",
"                                                 ._)=<.   ./b=))!&$s/.                  ",
"                                                 ,$)[/.a{l*))~<>.                       ",
"                                               .+>~)&n<5^))=q#.                         ",
"                                    ...,/n_$$~rp)))))))=k|@.                            ",
"                           ../(<bqrr*))))))[~&bse%))s/@.                                ",
"                     +,,>nns%&]=)))))=[~&b;n//..._)rn.                                  ",
"                  ae&=))))))r&bs{/@++..         aq)[/                                   ",
"                  /l))$>a,...                   }~)b.                                   ",
"                  .mp)~|.                      .(r)b                                    ",
"                    @5)r(.                     ._)r}                                    ",
"                    .e)!t+                     ._)r/                                    ",
"                     /&)[(.                    >~)&>                                    ",
"                      >&)](                    /[)_+                                    ",
"                      .e!)$,.                 .(])_+                                    ",
"                       .e))$,                 ._)p}.                                    ",
"                        .s!)b,                @$)r/                                     ",
"                         >&)]n                >~)->                                     ",
"                         .(=)-a.              /[)_.                                     ",
"                          .o=)l>.           .}k!!%@.                                    ",
"                           @%))b,           al!uur'.                                    ",
"                            .{=)->.        .@%*vvu%a                                    ",
"                             ,%))ka        ,_!*vvuuba.                                  ",
"                              +op)la     .(&)!uvvv*))~#.                                ",
"                               .m=)la.  @_^)%}5uuus@s*)~(.                              ",
"                                @%)!', @_*)-n/&uuvs+@s*)~#.                             ",
"                                ..s))qs*)&(. /-uvvs.  ,%))_.                            ",
"                                  +#=))*s,   /-uvus+  ..{*)~m.                          ",
"                                  ./&)^_,   .n&uvus.   .,s*)~#.                         ",
"                                 n&))-n.   >5uvvvv_+      ,s*)&#.                       ",
"                              .>b=)-/.     svvvv~',.       .,s*)~m+                     ",
"                             .(l^)-(.      evvvr'.           ,s*)&#.                    ",
"                            @$))kn.        ,o_s/,             .@s*)la.                  ",
"                          ./b=)-/           +++.                ,%)^ba                  ",
"                         ,q))&(.                                 +n-)^ba.               ",
"                         .t!!m                                    .+o=)5,               ",
"                         +t)!o                                      aq)-,               ",
"                         +t!!o                                      @k)l@               ",
"                         .t!!|                                      @q)[(               ",
"                         .t!^o                                      .s!!{               ",
"                         .t!^m                                       |=!{               ",
"                         .t)^o                                       |=!{               ",
"                         .<!^o                                       |=!{               ",
"                         +t!^o                                       |=^{               ",
"                         +t!^o                                       |=^{.              ",
"                         +<!^o                                       /-)la              ",
"                         .t)^o                                       ,q)la              ",
"                         .<!^o                                       @q)la              ",
"                         .t!^o                                       @q)la              ",
"                         .t)^o                                       @q)la              ",
"                         +t!!|                                       @q)la              ",
"                         +t!^|                                       .;)!{              ",
"                         +t!^o                                       +o!^<              ",
"                       .+,s)^|                                       +o*)$o@+.          ",
"                   ,ao%~)))*~(                                       +n~==))p;@.        ",
"                 .>sl=)))=5'n.                                       ..(|'5^)=%'|@      ",
"                ,b))[k'a++                                                 +|l==&n      ",
"                .a(a.                                                                   "};
