/* XPM */
static char * zizi_copter11_xpm[] = {
"88 88 60 1",
" 	c None",
".	c #CCCCCC",
"+	c #D0CFCD",
"@	c #C5C4C3",
"#	c #9C9996",
"$	c #5F5C5A",
"%	c #56524F",
"&	c #2F2D2C",
"*	c #100F0E",
"=	c #0B0B0A",
"-	c #383535",
";	c #807C79",
">	c #B9B6B2",
",	c #C9C7C6",
"'	c #86827E",
")	c #000001",
"!	c #070707",
"~	c #282523",
"{	c #8B8885",
"]	c #141312",
"^	c #B5B2B2",
"/	c #BCB8B9",
"(	c #A7A39F",
"_	c #181718",
":	c #6B6865",
"<	c #969290",
"[	c #201F1E",
"}	c #AFACA9",
"|	c #1D1B19",
"1	c #7E7BAD",
"2	c #403E97",
"3	c #6C6AA7",
"4	c #3E3B3B",
"5	c #75716D",
"6	c #7975A4",
"7	c #0A0986",
"8	c #010083",
"9	c #302E92",
"0	c #AAA6BB",
"a	c #C1BEBE",
"b	c #646160",
"c	c #625FA3",
"d	c #5B58A0",
"e	c #9B98B7",
"f	c #504E9D",
"g	c #1E1D8D",
"h	c #03034A",
"i	c #040479",
"j	c #8A87B2",
"k	c #464442",
"l	c #4E4C49",
"m	c #ACA8A5",
"n	c #928E89",
"o	c #4B4846",
"p	c #7A7772",
"q	c #94908C",
"r	c #1D0D07",
"s	c #130903",
"t	c #200F07",
"u	c #3B2B23",
"                                                                                        ",
"                                                                                        ",
"                                                                                        ",
"                                                                                        ",
"                                                                                        ",
"                                                                                        ",
"                                                                                        ",
"                                                                                        ",
"                                                 .+++..+.                               ",
"                                            .@#$%&*==*=*-;>.                            ",
"                                         .,'&))!~&${'''%]))!-{,+                        ",
"                                        .^%*)!-'/@,...+,($_))]',                        ",
"                                       ,:!!-<,            .,<[)];.                      ",
"                                     .}[)|<,1223^      +..,. .{!)4^...                  ",
"                                     .:))5,6788790.   .03221. a%)!bcd/                  ",
"                                 ,e0.;!!5a287e0c78f@.0988g782a ,:h8873.                 ",
"                                ,988878i9278c. .j783^g82a d8g1c9788882a                 ",
"                                @98878888888c. ,3871^g83..d888888ihhh&<,.               ",
"                                a98f'!!:./g8d.+1788i8889j0e78de/,%)*-=))k#@.            ",
"                                @98gb)*( a9890e98772278872eg81++/-)&^'~))]l}...         ",
"                                 eg8h)):..^288872/. ..^98g987j..{!)'.  a{4!)!k#.        ",
"                                  .,@l)={. .,,,..     +/98871,+m~)-a.    .,m%!)!&',.    ",
"                                    .<])ka             .0ffj. .{!)5,       +a{~))]l}.   ",
"                                     +#_)~}.                .al!)%,            ,<-))]%^.",
"                                       >k))|n..           ./5|)|#.              a{4=)!5+",
"                                       .^o!)|p^..       ..>l!)_{..            .a5*))*:a.",
"                                          ,{|))!~%p555:-~)))l(.          ..^{b|))&q@+   ",
"                                            .,(:4__=)!]~%:m,.        .,(k=)))]&5a.      ",
"                                              .+a((l)_<^,++        ..(b[))*&$<^.        ",
"                                                  ^|)b,        .,>(4))!~$(.             ",
"                                                  ^|)5.      ..(:~_))]$^..              ",
"                                                 .q*)5.   .>:]))!~$p^.                  ",
"                                                 .:)[>+a{4=))~n/.                       ",
"                                               ...$)[({4=))]o#.                         ",
"                                    ...,>m:b$~|_)))))))]l<@+                            ",
"                           +.^mnbk||*))))))[~&b5;q_):^@.                                ",
"                     +..>}(5%&_*)))))=[~~:;m^>...>|)5.                                  ",
"                  ap&*))))))[&b5{^@.+..          5)!;.                                  ",
"                  ^4))$/a,+.+                    :)~}                                   ",
"                  .#_)~#.                       .:)~^                                   ",
"                    @k)|(.                      }~)la                                   ",
"                    .p)!q.                      }[):                                    ",
"                     ^-)|(.                    .(_):                                    ",
"                      >&)_(                    .:)|}                                    ",
"                      .;!)$..                  .:)|^                                    ",
"                       .p!)$.                  a-)|>                                    ",
"                        .p!)$,                 >[):+                                    ",
"                         /&)|m                 ^|):.                                    ",
"                         .(])-a.              .5)*#.                                    ",
"                          .#])->.             .5)|^                                     ",
"                           @$!!b,             ,%)[>.                                    ",
"                            .{*)->.           ^[!r|5,                                   ",
"                             ,%))%a         .ab*str|<..                                 ",
"                              .#])4a       ,#~)sttts)!b@                                ",
"                               .#])-a.   ,:!)=4|ttt5m&)!b@                              ",
"                                @%)!;.  +#_)[;5ttttp+m-)!:@                             ",
"                                .,5!)la(&)=5,+5ttr~>  .m-)!:@                           ",
"                                  .(|)))=5,   5ttru^    .#_)~#.                         ",
"                                  .,l))=5,.   5tttu>     ,5=)~(.                        ",
"                                 a:!)=;+      5rttu^       @%)=;.                       ",
"                              .a:_)*q,.       5ttru^        ,%)!b@.                     ",
"                              ,:=)=5,         5ttru^        .m-)!ba                     ",
"                            +(&)=p..       .a$tttt-/          .m-)!ba.                  ",
"                           .(&)=5,.        +'trttt5.           .}-)!:,                  ",
"                         .}&)*5,.          +#~trun.              .;=)4/+                ",
"                         +n!!#               ,...                 +<=))k,               ",
"                         .q!!#                                    +(_))-,               ",
"                         +q!!#                                      @l)-@               ",
"                         .q!!#                                      ,o)|(               ",
"                         .q)!#                                      .5!!{               ",
"                         +<)!#                                       <*!{               ",
"                         +n)!#                                       #*!{               ",
"                         +n!!#                                       #*!{               ",
"                         +n!!#                                       #*!{               ",
"                         +n!!#                                       #*!{.              ",
"                         +<)!#                                       ^&)-a              ",
"                         .n)!#                                       ,k)4a              ",
"                         +{!!#                                       ,o)4a              ",
"                         .q!!#                                       ,k)4a              ",
"                         .q)!#                                       ,k)4a              ",
"                         +q!!#                                       ,k)4a              ",
"                         +q)!#                                       .;!!{              ",
"                         +q)!#                                       +#=)q              ",
"                       ..,5)!#                                       +#=)$#,..          ",
"                   .a#%~!))=~}                                       .}~*=))_'@+        ",
"                 .>54])))*4'(.                                       ..(#'4=)]%;#,      ",
"                .$))[l'a.+                                                 .<4]*&m      ",
"                .a(/+                                                                   "};
