/* XPM */
static char * zizi_copter9_xpm[] = {
"88 88 62 1",
" 	c None",
".	c #CCCCCC",
"+	c #D0CFCD",
"@	c #C5C4C3",
"#	c #9F9B99",
"$	c #5C5957",
"%	c #53504D",
"&	c #2C2928",
"*	c #0B0A09",
"=	c #121110",
"-	c #32312F",
";	c #817D79",
">	c #BCB9B7",
",	c #C9C7C6",
"'	c #85817E",
")	c #000001",
"!	c #080605",
"~	c #8A8784",
"{	c #17161B",
"]	c #070707",
"^	c #AEACA9",
"/	c #1C1A18",
"(	c #6A6763",
"_	c #9A9794",
":	c #928E8A",
"<	c #201F1E",
"[	c #807DAE",
"}	c #403E98",
"|	c #6C6AA7",
"1	c #B2AFBF",
"2	c #3E3B3C",
"3	c #B9B6B3",
"4	c #746F6B",
"5	c #7975A1",
"6	c #0A0A86",
"7	c #010083",
"8	c #2F2E92",
"9	c #A3A0B9",
"0	c #BFBDBC",
"a	c #64615F",
"b	c #615EA3",
"c	c #53509E",
"d	c #C3C0C0",
"e	c #9390B4",
"f	c #1B1A89",
"g	c #03034A",
"h	c #030379",
"i	c #8986B1",
"j	c #95918F",
"k	c #201F8E",
"l	c #A7A3A0",
"m	c #3A3633",
"n	c #B5B3B0",
"o	c #262421",
"p	c #4C4947",
"q	c #8D8A88",
"r	c #ACA8A5",
"s	c #464341",
"t	c #797672",
"u	c #6E6B69",
"v	c #1E0D05",
"w	c #1F0F07",
"                                                                                        ",
"                                                                                        ",
"                                                                                        ",
"                                                                                        ",
"                                                                                        ",
"                                                                                        ",
"                                                                                        ",
"                                                                                        ",
"                                                 .+++++..                               ",
"                                            .@#$%&*=***=-;>.                            ",
"                                         .,'-))!&-$~'~'${))]-~,.                        ",
"                                        +^%=)!-'>@,+..+,#$/))=',                        ",
"                                       ,()!-_,            .,:<){;.                      ",
"                                     .^<)<_,[}}|1      ..,.. +~])23...                  ",
"                                     .4))4,5677689.   .1|}}[. 0$!]abc1                  ",
"                                 ,99+;])4d}76e1b67c,.9876f67}d ,(g776|.                 ",
"                                ,877767h8}6hb. .i67|1f7}@ b7f[b867777}0                 ",
"                                d87767777777b, .|76[1f7|..b777777hggg&j..               ",
"                                d87c'))4,1k7c+.[67777778[1e67c9>.%)=-*))2_@.            ",
"                                @}78a)=l 0878198776}}6777}9f7[++>m)-n'o))=%^.+.         ",
"                                 9f7g))(..1}7776}>. ..187f876e..~])'.  0~m!)!2_.        ",
"                                  .,@p)=q. +.,,..     +>8776[..ro)m0+    .,r%])!-',+    ",
"                                    .j=)sd             .9cci. .~])4.       +0~o)!=%n.   ",
"                                     +_{)o^+                .0p))%,            .jm!)=%n.",
"                                       3p))/:..           .>4/)/#.              ,~s])]4.",
"                                       .3p])/43+.       ..3p!)/q,.            .04=))=(d.",
"                                          .'<)))o%ttttumo)))pl.          +.nqa<))&j@+   ",
"                                            +,l(2//*)){o%(^,.        +.ls*)))=&t0.      ",
"                                              .+0ll$)/_^,+.        +.la<))=&$_n.        ",
"                                                  .()<3        .,3l2)))&a#.             ",
"                                                  .()<>      +.la&/))=an+.              ",
"                                                  .()<>   +3a=))!&$t3.                  ",
"                                                  ,()<>0~2*))o:>.                       ",
"                                               ..,n$)/t2]))=p_.                         ",
"                                    +..,3^4a$o/{)))))))=p_d.                            ",
"                           ..nl:as//*))))))<o-a4t^>q=)u+                                ",
"                     ..,nrr4$&/=)))))*oo&(;rn3...  ^<)u                                 ",
"                  0t-=))))))/-atq3@+++.            ^{)u                                 ",
"                  n2))$>0,.+.                      ^<)u                                 ",
"                  .#/)o_.                          ^/)u                                 ",
"                    ,s)/l.                         ^<)u                                 ",
"                    .t)!:+                         ^/)u                                 ",
"                     n-)/#.                        ^{)u                                 ",
"                      >-)/l                        ^<)u                                 ",
"                      .;])$..                      ^<)u                                 ",
"                       +t!)$,                      ^<)u                                 ",
"                        .t!)$.                     ^<)u                                 ",
"                         3-)/l                     ^/)u                                 ",
"                         +l=)m>.                   3-)on                                ",
"                          +_/)m3.                   a)o^                                ",
"                           @$))a,                   a)on                                ",
"                            .~=)->.                 a)on                                ",
"                             ,$))%0                 a)on                                ",
"                              +_{)m0             +@:s)o3                                ",
"                               .#=)m0.       .r$<]*vwv*=(,.                             ",
"                                ,%)]',     ,>'o))]wwwwv)]$^+                            ",
"                                .,t!)p0+0(/)))=43.,(wwwv]))&#+                          ",
"                                  .#/)&&))-t3..    ,(vwww$4*)m>.                        ",
"                                   +'=))*%r.        r&wwvm^%)](,                        ",
"                                 du/))-;@           .uvvvmn+lm)]u.                      ",
"                              .l$*)&;,+             .4vvwo#, +;*!m0                     ",
"                             .l&!!-l.               .twwwwm#. @%)*a@                    ",
"                           .l-)*u>.                  ,4wvww/'  .r-!)ad                  ",
"                          .l-)*4@                    .n%wwwv;   +r-!*a0                 ",
"                         .^/)(,                        .n44#,     +_=)m0.               ",
"                         +:]]_                                     +j])s,               ",
"                         +:)]_                                      n&)m@               ",
"                         +:]]_                                      ,p)m@               ",
"                         .:]]_                                      ,s)<l               ",
"                         .j]]j                                      .t]]~               ",
"                         +j]]#                                       j=]~               ",
"                         +:]]_                                       _=]~               ",
"                         .:]]_                                       j=]~               ",
"                         +:]]_                                       j=]~               ",
"                         .j)]_                                       j*]5+              ",
"                         +:]]#                                       >-)20              ",
"                         +:)]j                                       ,s)20              ",
"                         +:]]_                                       ,s)2@              ",
"                         .j]]_                                       ,s)20              ",
"                         .j]]_                                       ,s)20              ",
"                         .:]]#                                       ,s)2d              ",
"                         +:]]_                                       .;]!:              ",
"                         +j]]_                                       +_*]q              ",
"                       .+.4!]j                                       +_*!$_,+.          ",
"                   .0_%o)!!]&^                                       .^&=]!){'@+        ",
"                 .342=)))*2'l.                                       ..lj'2]!=%;j,      ",
"                ,$))<%'d.+                                                 .j2==&^      ",
"                .dl0.                                                                   "};
