/* XPM */
static char * zizi_copter10_xpm[] = {
"88 88 62 1",
" 	c None",
".	c #CCCCCC",
"+	c #D0CFCD",
"@	c #C5C4C3",
"#	c #9D9995",
"$	c #5C5856",
"%	c #54514E",
"&	c #2E2C2A",
"*	c #090908",
"=	c #373534",
"-	c #7D7A76",
";	c #BCB9B5",
">	c #C9C7C6",
",	c #84807D",
"'	c #000001",
")	c #080605",
"!	c #292725",
"~	c #8A8785",
"{	c #181718",
"]	c #B3B0AC",
"^	c #100F0E",
"/	c #A6A29D",
"(	c #141312",
"_	c #686562",
":	c #979491",
"<	c #928E8A",
"[	c #22211F",
"}	c #ADA9A7",
"|	c #7F7CAD",
"1	c #434199",
"2	c #6D6AA7",
"3	c #B8B5B8",
"4	c #3E3C3B",
"5	c #75726F",
"6	c #716C69",
"7	c #0A0A86",
"8	c #010083",
"9	c #353494",
"0	c #AAA7BB",
"a	c #C3C0BE",
"b	c #63605E",
"c	c #615FA3",
"d	c #53509E",
"e	c #9B98B7",
"f	c #2B2A91",
"g	c #1D1C8D",
"h	c #BEBCBD",
"i	c #000047",
"j	c #040477",
"k	c #8986B1",
"l	c #201F62",
"m	c #B7B3B0",
"n	c #4E4B48",
"o	c #100F47",
"p	c #494644",
"q	c #1D1B19",
"r	c #7C7570",
"s	c #A8A5A2",
"t	c #9F9B99",
"u	c #1F0E06",
"v	c #130903",
"w	c #392A22",
"                                                                                        ",
"                                                                                        ",
"                                                                                        ",
"                                                                                        ",
"                                                                                        ",
"                                                                                        ",
"                                                                                        ",
"                                                                                        ",
"                                                 .+.++++.                               ",
"                                            .@#$%&******=-;.                            ",
"                                         +>,&'')!=$~,~,${''*=~..                        ",
"                                        .]%^')=,;@...++>/${''(,>                        ",
"                                       >_')=:>            +.<['(,>                      ",
"                                     .}['[:>|1123      ...>. +~*'43...                  ",
"                                     >5''6>|788790.   .0211|> a$')bcd3                  ",
"                                 >e0.,')5a187e3c78d>.0f88g781h ._i8872.                 ",
"                                >988878j9978c. .k7823g89@ d8g|c9788889h                 ",
"                                h98878888888c+ .287|0g82..d888888jiiil:..               ",
"                                h9jd,''6.3g8d+.|7888888fk3e78de3.%'^=*')4:@.            ",
"                                @98fb)(/ hf8f0ef8871178881eg8|++h='&m,[''(n]...         ",
"                                 eg8o''_..31888713+ ..3f8g987k..~*',+  a~4)''p#>        ",
"                                  .>@p'^~. ..>>..     +39887|..}['=h.    +>}%*')&,>.    ",
"                                    .:^'4a             .0ddk. .~*'6.       .a~[''^%].   ",
"                                     .#{'[}+                .an''%@            .:4''(%m.",
"                                       3p''q<..           .;5{'q#+              a~4*'*5+",
"                                       .mp*'qrm..       ..3n)'{~..            .a5^''^_a.",
"                                          .,['')[%r55r_=!'''ns.          +>3~bq''&:@+   ",
"                                            +>}_4{{*''([%6}..        ..s4*'''(&5a.      ",
"                                              ..hss$'{:]>+.        ..sb[''^&$:3.        ",
"                                                  3!'!;        ..3s4'')&b#.             ",
"                                                  mq'b.      +.sb!{''(b].+              ",
"                                                  mq'6+   .mb('')&br3.                  ",
"                                                 +}q'6+h~4*''[<;.                       ",
"                                               +.>_''6<4*''(p#.                         ",
"                                    +...3s6b$[q{'''''''(n:@+                            ",
"                           +.ms~_pq{*''''''[[=_5-}b'q/@+                                ",
"                     +>>m}}6$&{^'''''*[[!_,}m3....$'q3                                  ",
"                  h-&^''''''[&b5~m@+++.          3q'_.                                  ",
"                  m4''$;a>...                    3q'6.                                  ",
"                  .#{'[:.                        3q'6.                                  ",
"                    @p'q/.                       6'*-.                                  ",
"                    .r')<+                       _'{}+                                  ",
"                     ]='[s.                      _'[}                                   ",
"                      ;&'qs                     .$'q}                                   ",
"                      .-)'$..                   }['=3                                   ",
"                       .r)'$>                   ]['_                                    ",
"                        .r)'b>                  ]['_                                    ",
"                         ;&'q}                 .t{'_                                    ",
"                         +/('=h.               .6'{]                                    ",
"                          .#{'=3.              .6'qm                                    ",
"                           @$))b>              .5'qm                                    ",
"                            .~('=3.            3['=h                                    ",
"                             >$''nh           .mq'n;...                                 ",
"                              +#{'=h        .}$^uuuv'q6;.                               ",
"                               +t('4h.    ./&''vuuuqn!''&/.                             ",
"                                >%'*,.   ./!'*6buuuur}n*'!/+                            ",
"                                ..5)'ph@6q'*5> ;wuuur. >5*'=;                           ",
"                                  +/q'**'&,@   ;wuuu$>  .}='*_@.                        ",
"                                   .~^''&}.    ;=uuuq#.  .}='*~.                        ",
"                                 ./&''&}.      .}wuuur+    >6)'%h                       ",
"                               >t&'*_;.         ]wuuur.     .#{'!t+                     ",
"                              a_q'*5@.          ]wuuur.     .>5^)&t.                    ",
"                            .6*'&,@.            ]wuuu$>       .>%')&t.                  ",
"                           h,q'!s+.             3=uuuq:        .}=''&s                  ",
"                         .}['{5a.                ]wuuu-          +m='*~+                ",
"                         +<)*#                    >;ma+           +t*''4a               ",
"                         +<**#                                    +s{''=>               ",
"                         +<**#                                      @n'=@               ",
"                         .:'*#                                      >p'{s               ",
"                         .<)*#                                      .5)*~               ",
"                         +<'*t                                       :^*~               ",
"                         +:**#                                       :^*~               ",
"                         +<'*#                                       :^*~               ",
"                         +<'*#                                       :^*~               ",
"                         +:)*#                                       :^*~+              ",
"                         .:'*#                                       m='=h              ",
"                         +:)*#                                       ap'4h              ",
"                         .<)*:                                       >p'4h              ",
"                         .<**#                                       >p'4h              ",
"                         +<**#                                       >p'4h              ",
"                         +<)*#                                       ap'4@              ",
"                         +:)*#                                       .,))~              ",
"                         +<)*#                                       +#*':              ",
"                       .+>5'*:                                       +#^'bta+.          ",
"                   .a#%!*''*!}                                       .}!^^''{,a+        ",
"                 .;54('''^4,}>                                       ..s:,4*'^%,#>      ",
"                .$''[n,a..                                                 +:4((&}      ",
"                .a/h.                                                                   "};
