/* XPM */
static char * zizi_copter3_xpm[] = {
"88 88 66 1",
" 	c None",
".	c #CCCCCC",
"+	c #D0CFCD",
"@	c #C9C7C6",
"#	c #9D9A97",
"$	c #5C5957",
"%	c #54514E",
"&	c #302A27",
"*	c #0B0B0A",
"=	c #100E0D",
"-	c #322F2E",
";	c #84817D",
">	c #BCB9B7",
",	c #000001",
"'	c #080605",
")	c #272523",
"!	c #8A8785",
"~	c #1A1918",
"{	c #080807",
"]	c #B4B0AC",
"^	c #11100F",
"/	c #383639",
"(	c #C5C4C3",
"_	c #A19D99",
":	c #141312",
"<	c #6C6966",
"[	c #999693",
"}	c #94908C",
"|	c #211F1C",
"1	c #AEAAA7",
"2	c #807DAE",
"3	c #474599",
"4	c #7673A6",
"5	c #B3B0BF",
"6	c #403D3B",
"7	c #B8B5B2",
"8	c #0A0986",
"9	c #010083",
"0	c #373695",
"a	c #A4A1B9",
"b	c #6967A6",
"c	c #C3C0BF",
"d	c #676362",
"e	c #54519E",
"f	c #7F7C78",
"g	c #73706C",
"h	c #8E8BB3",
"i	c #6361A4",
"j	c #2D2C91",
"k	c #1E1D8C",
"l	c #040461",
"m	c #5D5AA2",
"n	c #BFBCBD",
"o	c #05052F",
"p	c #96928F",
"q	c #A7A4A0",
"r	c #4F4C48",
"s	c #8E8A88",
"t	c #494644",
"u	c #797470",
"v	c #63605D",
"w	c #A9A5A2",
"x	c #A5A19D",
"y	c #1C0C04",
"z	c #200F07",
"A	c #2F221C",
"                                                                                        ",
"                                                                                        ",
"                                                                                        ",
"                                                                                        ",
"                                                                                        ",
"                                                                                        ",
"                                                                                        ",
"                                                                                        ",
"                                                 ...++...                               ",
"                                            .@#$%&*===*=-;>.                            ",
"                                         .@;&,,')-$!;!;$~,,{-!@.                        ",
"                                        .]%^,'/;>(...+.@_$~,,:;@                        ",
"                                       .<,'-[@            +@}|,:;@                      ",
"                                     .1),|[@23345      ..@@. .!{,67...                  ",
"                                     .<,'<@489990a.   .5b332. c%,{dbe5                  ",
"                                 @aa.f'{gc098h5i89e(.aj98k893c @<l998b.                 ",
"                                c099989lj089m. .h89b5k90n m9k2i0899990c                 ",
"                                c09989999999m+ .49845k94..m999999llol-p..               ",
"                                c09e;''g.>k9e+.28999999j25h89ma>@%,:-*,,6[(.            ",
"                                (09kd,^q nj9j5aj9883389983a892++>/,-7;),,:r1.+.         ",
"                                 ak9l,,<..5099980>. ..5j9k098h..!{,;.  (!/','6#@        ",
"                                  ..cr,=s. ..@@..     .n09982..1),/n.    .@1%{,'-;@.    ",
"                                    .p^,6c             .ae3h. .!{,g.       .c!),,^%].   ",
"                                     .[~,)1+                .cr''%(            .p/,,^%7.",
"                                       7t,,~}..           .>g~,|#.              @!6{,*g+",
"                                       .7t{,|u>..       ..7r',~!..            .c<=,,^dc.",
"                                          .;~,,')%uuuu</)',,rq.          ..7sv~,,&}@+   ",
"                                            .@wd/~:,,*~)%<1..        .@w6{,,,:&uc.      ",
"                                              .+nq}~,$1]@+.        ..qv|,,:-v}7.        ",
"                                                  7),&>        ..7q6,,,)v_.             ",
"                                                  .$,~>      +.qv)~,,:v]..              ",
"                                                  .<,)7   .7d:,,'&vu].                  ",
"                                                  .<,~1c!6*,,)}>.                       ",
"                                               ...]$,,66{,,:t#.                         ",
"                                    ...@7wgv$)~~,,,,,,,:r[(.                            ",
"                           +.71sdt~~=,,,,,,|)-dgu1>1|,<+                                ",
"                     +.@71wg$&~=,,,,,*|))df177...  1~,v@                                ",
"                  nu-=,,,,,,~-vus7(++..            .$,~7                                ",
"                  76',$>c@...                       d,)7                                ",
"                  .#~,)[.                           v,~q.                               ",
"                    (t,~x.                          1~,g.                               ",
"                    .g,{}+                          1~,g.                               ",
"                     7-,~x.                         ]|,6c                               ",
"                      7-,~q                         .v,|>                               ",
"                      .f',$@.                       .d,)>                               ",
"                       .f',$.                       +g',u.                              ",
"                        .u{,v@                      +#:,)>                              ",
"                         7-,~1                     .w),,)>                              ",
"                         +x:,/n.                 .x-yyy,*!                              ",
"                          .#~,/7.              +x&,yzzyy,6n                             ",
"                           ($,'v(            .(s-,'yzzz',~x.                            ",
"                            .!:,->.         @g{,:g1&yzzd&,)>.                           ",
"                             @$,,rn       .@#~,)p@;zzzzuv,*}+                           ",
"                              +#~,6>    .@<{,*<(.7&yzytn7&,~_.                          ",
"                               .#:,/n. @<*,-w.  .fzzzzu .cr,{;.                         ",
"                                @%,{;.._~,)q.   >6yzy|s  .#:,/c+                        ",
"                                ..g',6-,*g@.    ]&yzzu+   .x:,/n.                       ",
"                                  +f,,*g(       nrzzAp.    .w),~x                       ",
"                                ..w&,{g@.       @]gds@.     .u{,v..                     ",
"                               .c$,,d(                       .u'{v.                     ",
"                              (<*,-q.                         .f=,6n                    ",
"                             +s*'-q.                           (r,*;.                   ",
"                           .q&,*<(.                            .@r,*;+                  ",
"                           1-,*g(                               +#:,6n                  ",
"                         +#=,-]+                                 .1-,,-1.               ",
"                         +},*#                                    .+1&,6@               ",
"                         +}{{#                                      @r,/(               ",
"                         +}{{[                                      (r,/(               ",
"                         +},*#                                      @t,|q               ",
"                         .p,{[                                      .u{{!               ",
"                         +},{#                                       p={!               ",
"                         +}{{[                                       [^{!               ",
"                         +},{[                                       [^{!               ",
"                         +},{[                                       [^{!               ",
"                         +}{{[                                       [^{!.              ",
"                         +p,{#                                       7-,/n              ",
"                         +}{{#                                       @t,6n              ",
"                         +},,[                                       @t,6n              ",
"                         .},{#                                       (t,6n              ",
"                         +},{[                                       @t,6n              ",
"                         +}'{#                                       (t,6c              ",
"                         .}{{#                                       .;{,s              ",
"                         +p,'[                                       +[*{s              ",
"                       ++@g'{[                                       +#*,v#@+.          ",
"                   .n#%)','{)1                                       .1)^*,,~;(.        ",
"                 .7g6:,,,=6;w.                                       ..w#;6*,^rf[.      ",
"                .$,,|r;c.+                                                 +p6^=&1      ",
"                .cqn.                                                                   "};
