/* XPM */
static char * zizi_copter0_xpm[] = {
"88 88 61 1",
" 	c None",
".	c #CCCCCC",
"+	c #D0CFCD",
"@	c #C5C4C3",
"#	c #A4A09C",
"$	c #5B5857",
"%	c #514E4B",
"&	c #34312E",
"*	c #0C0A09",
"=	c #100E0D",
"-	c #7E7A76",
";	c #BEBBB9",
">	c #C9C7C6",
",	c #84807C",
"'	c #302B29",
")	c #000001",
"!	c #080807",
"~	c #262522",
"{	c #8A8785",
"]	c #141312",
"^	c #B3B0B4",
"/	c #080605",
"(	c #393737",
"_	c #181719",
":	c #6A6764",
"<	c #98938D",
"[	c #94908C",
"}	c #201F1D",
"|	c #AEACA9",
"1	c #999693",
"2	c #807DAE",
"3	c #413F98",
"4	c #7571A5",
"5	c #3F3D3B",
"6	c #B8B5B2",
"7	c #706C69",
"8	c #0A0A87",
"9	c #010083",
"0	c #302E92",
"a	c #A7A3BA",
"b	c #6664A5",
"c	c #C3C0BE",
"d	c #63605F",
"e	c #5D5AA2",
"f	c #BCB9C3",
"g	c #9F9BB7",
"h	c #8E8BB3",
"i	c #53509E",
"j	c #1F1E8D",
"k	c #040453",
"l	c #050579",
"m	c #00002E",
"n	c #959290",
"o	c #A9A6A2",
"p	c #9C9996",
"q	c #75716E",
"r	c #494644",
"s	c #1D1B19",
"t	c #928E8A",
"u	c #7B7671",
"v	c #1F0E06",
"                                                                                        ",
"                                                                                        ",
"                                                                                        ",
"                                                                                        ",
"                                                                                        ",
"                                                                                        ",
"                                                                                        ",
"                                                                                        ",
"                                                 .++++++.                               ",
"                                            .@#$%&*=***=&-;.                            ",
"                                         +>,'))!~&${{,{%]))!&{..                        ",
"                                        .^%=)/(,;@>+....#$_))],>                        ",
"                                       >:))&<>            +>[})],>                      ",
"                                     .|})}1.2334^      ..>.. +{*)56.>.                  ",
"                                     .7)):>489990a+   +^b332> c$)!dbef                  ",
"                                 >ga.,/)7@398h^b89i@+a098j893f >:k9994.                 ",
"                                >099999l0389e+ +h89b^j93f i9j2b0899993f                 ",
"                                >09989999l99e> .4982^j94..i998999lkmk'n..               ",
"                                @09i,))7>fj9e+.2899999902^h89egf.%)=&*)/51@.            ",
"                                @09jd)]o f090^g09983389983g892++;()&6,~))]%|...         ",
"                                 gj9k)):..^399983f+ ..^09j098h..{!),.  c{5/))5p>        ",
"                                  .>c%)*{. .>>>..     +f09982..|~)(;.    ..o%*))',>.    ",
"                                    +n=)5c             .aii2. .{!)q.       .c{~))=%^.   ",
"                                     +1_)~|+                .;%/)%>            .<())]%6.",
"                                       6r))st+.           .;qs)}p+              @{5!)!u+",
"                                       .6r!)su6+.       ..6%))_{..            .cq=))=:c.",
"                                          .,})))~%uquu:(~)))%o.          ..6{ds))'<@+   ",
"                                            .>o:5_!))]_~%:o>.        .>or!)))='qc.      ",
"                                              ..;o%)s1o|>+.        +.od}))=&$16.        ",
"                                                 .:)}^         ..6o5))/~d#.             ",
"                                                 .:)}6       +.od~s))]$6+.              ",
"                                                 .:)}6    .6d]))/'du^.                  ",
"                                                 c5)s6.c{5*))}t;.                       ",
"                                               ..6s)r^t5*))]r#.                         ",
"                                    ...>6o7d$~s_)))))))=%1@.                            ",
"                           ++^otdrs_*))))))}~&dq-[_):6@.                                ",
"                     +.>6|oq$'_=)))))=~}~:,o66...6s)7.                                  ",
"                  ;-'=))))))}'dq{6@++..          6s)7.                                  ",
"                  65))$;;>.+.                    6s)7.                                  ",
"                  .p])~1.                        6s)7.                                  ",
"                    @r)_o.                       6s)7.                                  ",
"                    .u!!t+                       o])7.                                  ",
"                     6&)}#.                      :)}|.                                  ",
"                      6')so                      :)}|                                   ",
"                      .-/)$..                    :)}^                                   ",
"                       .-!)$>                    :)~|                                   ",
"                        .u/)d>                 .ps)_p.                                  ",
"                         ;')so                 65**/&o.                                 ",
"                         .o])(;.              #_*vvv!)$>                                ",
"                          .p])(6.           +,*)*vvvs=)(;.                              ",
"                           @$))d>          .o')/vvvv7%)/7@.                             ",
"                            .{])&6.       .#_)&o'vvvq+#')!{.                            ",
"                             >$))%;      .o&)*,6'vvv7+ #])(;                            ",
"                              .#_)(;    c$)):@ 6&vvvvu+.o~)s#.                          ",
"                               .p])(;..;()]1.   ^'vvvq. .@%)*{+.                        ",
"                                >%)!,.>:!)%>    ^'vvvu+  +p])'|.                        ",
"                                ..q/)}!)&o+.    6&*vv-+   .6()*{.                       ",
"                                  +-))*7@       ..oo;.      @%)*{.                      ",
"                                  |')*7>.                   +p])(;                      ",
"                               .@:*)(6                       .o~)so                     ",
"                              +,=)&#.                         .^()=,.                   ",
"                             .#')]1+                           +p])'#.                  ",
"                           .#')*7@                              .@%)*7c                 ",
"                          .#')*7@                                +o~)}#.                ",
"                         >r)):@                                   .@%)!{+               ",
"                         +[/!1                                      c5)(c               ",
"                         +t!*p                                      @%)(c               ",
"                         +t)!1                                      @r)(@               ",
"                         .t!!1                                      >r)_o               ",
"                         .n!!1                                      .-!!{               ",
"                         +t!!p                                       n=!{               ",
"                         .t)!1                                       1=!{               ",
"                         +t!!p                                       1=!{               ",
"                         +t!!1                                       1=!{               ",
"                         +n!!1                                       1=!{.              ",
"                         .t!!p                                       6&)5f              ",
"                         .t)!p                                       >r)5f              ",
"                         +t!!1                                       >%)5c              ",
"                         +t!!p                                       >r)5;              ",
"                         +t!!1                                       @r)5c              ",
"                         .t!!1                                       >r)5;              ",
"                         .n)!p                                       .,/!{              ",
"                         +n)!1                                       +p*!{              ",
"                       ++>q)!1                                       +p*)$p>+.          ",
"                   .;p%~)))*~o                                       .o'=*))_,@.        ",
"                 +6q5])))=5,o.                                       ..o1{5*)=%,p>      ",
"                .$))}%,;++                                                 +n5]]'o      ",
"                .c#;.                                                                   "};
