/* XPM */
static char * zizi_copter13_xpm[] = {
"88 88 66 1",
" 	c None",
".	c #CCCCCC",
"+	c #D0CFCD",
"@	c #CAC8C7",
"#	c #A19D99",
"$	c #5E5B59",
"%	c #55524F",
"&	c #312B27",
"*	c #0B0A09",
"=	c #12100F",
"-	c #35322F",
";	c #807D79",
">	c #BCB9B8",
",	c #85817E",
"'	c #000001",
")	c #070707",
"!	c #292725",
"~	c #1A1919",
"{	c #8B8886",
"]	c #B4B0AC",
"^	c #383634",
"/	c #C3C0BF",
"(	c #A5A19D",
"_	c #6A6764",
":	c #999693",
"<	c #928E8A",
"[	c #242320",
"}	c #ADA9A6",
"|	c #9D9995",
"1	c #817EAE",
"2	c #47459A",
"3	c #6C6AA7",
"4	c #B2AFBF",
"5	c #3F3C3A",
"6	c #B5B3B1",
"7	c #726D69",
"8	c #7874A1",
"9	c #090986",
"0	c #010083",
"a	c #373695",
"b	c #A3A0BA",
"c	c #646160",
"d	c #6361A4",
"e	c #54519E",
"f	c #1A198A",
"g	c #908DB3",
"h	c #C6C5C4",
"i	c #2D2C90",
"j	c #03034A",
"k	c #5D5AA2",
"l	c #BFBCBC",
"m	c #312F55",
"n	c #96928F",
"o	c #080605",
"p	c #4A4845",
"q	c #A7A4A1",
"r	c #9D9A99",
"s	c #201F1E",
"t	c #3B3836",
"u	c #B9B6B3",
"v	c #76726F",
"w	c #7B7772",
"x	c #94908C",
"y	c #1E0E05",
"z	c #2B1B13",
"A	c #34231B",
"                                                                                        ",
"                                                                                        ",
"                                                                                        ",
"                                                                                        ",
"                                                                                        ",
"                                                                                        ",
"                                                                                        ",
"                                                                                        ",
"                                                 .+++.+..                               ",
"                                            .@#$%&**==*=-;>.                            ",
"                                         .@,-'')!-$,,,,$~'')-{@.                        ",
"                                        .]%=''^,>/@.++.@($~''=,@                        ",
"                                       @_''^:@            .@<['=,.                      ",
"                                     .}['~|@12234      ..@.. .{)'56...                  ",
"                                     .7''7@89009ab.   .43221. /%')cde4                  ",
"                                 @b4.;)'7/20fg4d90eh+bi00f902h ._j0093.                 ",
"                                ha000009ia90k. +g9034f0a/ k0f1da90000al                 ",
"                                /a0090000000k@ @30914f03..k0000000jjjmn..               ",
"                                /a0e,o'7@>f0e++19000000i14g90kb>@%'=-*''p:h.            ",
"                                ha0fc'=q /i0i4bi00f2290002bf01++/^'-6,!''=%}.+.         ",
"                                 bf0j''_..4a0009a>. ..4i0fi09g..,)',+  /{5'''5r.        ",
"                                  .@/p'={. .@hh..     .>a00f1..]['^l.    .@}%*''&,h.    ",
"                                    +n='p/             .be21. .,)'7.       .h,[''=%].   ",
"                                     +:='s}+                ./%''%/            @:t''=%6.",
"                                       up''~<+@           .>v~'~r.              /{5*')w+",
"                                       .6p)'~wu+.       ..up''~{..            ./v=''=_/.",
"                                          @,s'''[%wvwv_^['''p}.          +.6{$~''&xh+   ",
"                                            .@}_t~~*''=!%_}@.        .@q5*'''=&v/.      ",
"                                              +.lqqp'~n}@+.        ..q_s''=&$:6.        ",
"                                                  6~'c@        .@6q5''o!c#.             ",
"                                                  6~'7+      +.q_!~''=$]+.              ",
"                                                 +7'*<+   +6c='''&$w6.                  ",
"                                                 @$'~6+/{5*''s<>.                       ",
"                                               .+6!'&}{5)''=p#.                         ",
"                                    ...@u}7$$!~~'''''''=%:/+                            ",
"                           +.6}{cp~~*''''''s!-_7w%'~q4h+                                ",
"                     +@@6}qv$&~='''''*[!!_;}66..._'[]                                   ",
"                  lw-=''''''s&cv<6h+++.         }['ph                                   ",
"                  65''$>l@.++                  +q~'_                                    ",
"                  .|~'[:.                      .v')w                                    ",
"                    /p'~q+                     .7's6                                    ",
"                    .w')<+                     l5'~6                                    ",
"                     ]-'~q.                   +6s'_+                                    ",
"                      >-'~(                   .7'=|+                                    ",
"                      .;)'$@.                 +7'~6.                                    ",
"                       .w''$.                 us'%/                                     ",
"                        .w''$@                {)'7.                                     ",
"                         u-'~}                _'~|.                                     ",
"                         .q='^l+             lt'[}                                      ",
"                          .r~'tu.           .{)o[w/.                                    ",
"                           h$''ch           /%oyyy,+                                    ",
"                            .{='^u.        (~'oyyyy&#.                                  ",
"                             @%''pl       @$')5zyyyo&q.                                 ",
"                              +|~'tl    +}&'*;>&yyy!*'!(.                               ",
"                               .r='tl..@7*'->+u&yyy7@7''%/                              ",
"                                /%');@@7)'&q. >&yyy7 >5')ch                             ",
"                                .@v''5&'*w+.  >&yyy-u+.}^')c/.                          ",
"                                  +|=''^}.    +nzyyyv.  .}&'~|.                         ",
"                                  +{)'&q.     .u&yyyv.   .;*'^l                         ",
"                                .(&'*vh        u&yyyw+    .}t')c/                       ",
"                              .(&'=7h          u&yyy-6+     +}-'*cl                     ",
"                             h,&'=7h           h%yyyy,+      +}^))c/                    ",
"                          .h_*'~7h             .]-yyyw.        .q!'~r+                  ",
"                          @v*'-:h               }Ayyyw+         +;='&}                  ",
"                         +x''7.                 /%yyA|.          +6^'*c/.               ",
"                         .x))|                   ....             .+|='5h               ",
"                         +x')|                                      /5'^h               ",
"                         +x)):                                      /p'th               ",
"                         +<)):                                      hp'~q               ",
"                         +<)):                                      .v)){               ",
"                         .<)):                                       n=){               ",
"                         +<)):                                       :=){               ",
"                         +<)):                                       :=){               ",
"                         .<')r                                       :=){               ",
"                         +n)):                                       :=){+              ",
"                         +<')r                                       6-'ml              ",
"                         .<')r                                       hp'5/              ",
"                         +n'):                                       hp'5/              ",
"                         +x')|                                       @p'5l              ",
"                         +x)):                                       hp'5/              ",
"                         +x)):                                       hp'5l              ",
"                         +<'):                                       .,)){              ",
"                         +<)):                                       +|*)<              ",
"                       ++hv)*:                                       +r*'$:h+.          ",
"                   ./|%!)''*!}                                       +}!=*''~,h+        ",
"                 .>v5='''=5,}@                                       .@q:,5*'=%,:@      ",
"                @c''sp,/.+                                                 +:5==&q      ",
"                ./(l.                                                                   "};
