/* XPM */
static char * zizi_copter4_xpm[] = {
"88 88 61 1",
" 	c None",
".	c #CCCCCC",
"+	c #D0CFCD",
"@	c #C9C7C6",
"#	c #9C9996",
"$	c #5D5A58",
"%	c #53504D",
"&	c #2B2825",
"*	c #0C0A09",
"=	c #100F0E",
"-	c #32302E",
";	c #807C78",
">	c #BCB9B8",
",	c #86827E",
"'	c #000001",
")	c #181716",
"!	c #080706",
"~	c #8A8784",
"{	c #B3B0AC",
"]	c #C5C4C3",
"^	c #A5A19D",
"/	c #1C1B1A",
"(	c #141312",
"_	c #6E6864",
":	c #999693",
"<	c #94908C",
"[	c #201F1E",
"}	c #807DAE",
"|	c #444399",
"1	c #7572A4",
"2	c #B2AFBF",
"3	c #403D3B",
"4	c #B7B4B2",
"5	c #0A0986",
"6	c #010083",
"7	c #313093",
"8	c #A4A0B9",
"9	c #6462A4",
"0	c #C0BEBD",
"a	c #656260",
"b	c #5855A0",
"c	c #74716D",
"d	c #8F8CB3",
"e	c #1B1A8C",
"f	c #040453",
"g	c #21208E",
"h	c #05052F",
"i	c #201F62",
"j	c #959290",
"k	c #A7A4A0",
"l	c #393738",
"m	c #4A4745",
"n	c #918D89",
"o	c #ADAAA7",
"p	c #242321",
"q	c #A9A5A2",
"r	c #98938D",
"s	c #7A7773",
"t	c #A19D99",
"u	c #1F0E06",
"v	c #3F2F27",
"                                                                                        ",
"                                                                                        ",
"                                                                                        ",
"                                                                                        ",
"                                                                                        ",
"                                                                                        ",
"                                                                                        ",
"                                                                                        ",
"                                                 ..++++..                               ",
"                                            .@#$%&*=*=*=-;>.                            ",
"                                         .@,-'''&-$,,,,$)''!-~@.                        ",
"                                        .{%=''-,>].+..+@^$/''(,@                        ",
"                                       @_!'-:]            .@<['(;.                      ",
"                                     .{['[:@}||12      ..@.. .~*'34...                  ",
"                                     ._''_@1566578.   .29||}. 0%'!a9b2                  ",
"                                 @88.;!!c0|65d2956b].8765e56|0 @_f5651.                 ",
"                                @766656677569+ .d5692e6|0 b6g}975666670                 ",
"                                ]766566666669+ .165}2e61..b6666666fhfij..               ",
"                                076b,!!_.>g6b..}56666667}2d56b8>@%'(-*''3:].            ",
"                                ]76ga'=k 0767287665||5665|856}++0l'-{,&''(%{...         ",
"                                 8e6f''_..276665|>. ..276e765d..,*',+  0~3'''3#@        ",
"                                  .@]m'=n. .@@@..     +>7665}..op'l0.    ..q%*''-,@.    ",
"                                    .<='30             .8b|}. .~*'c.       .]~p''=%{.   ",
"                                     +:)'p{+                .0m!'%@            .rl''(%4.",
"                                       4m''/n..           .>c/'/#.              ]~3*'!c+",
"                                       .4m!'/s4+.       ..4m'')n..            .0c=''=_].",
"                                          @~/''!p%scss_lp'''mq.          ..4n$/''-r]+   ",
"                                            .@o_l)*''))&%_o@.        .@q3*'''=&c0.      ",
"                                              .+>o%'*soo@++        +.ka[''=-ar4.        ",
"                                                 .{/'a@        .@4k3''!&at.             ",
"                                                  4&'&0      +.ka&/''(${+.              ",
"                                                  ._'/{   +4a('''&$s4.                  ",
"                                                  +k/'_]~3*''[n>.                       ",
"                                               ..@4</'l3*''(mt.                         ",
"                                    .@.@4oca$&/)'''''''=m:].                            ",
"                           +.4qnam//=''''''[&-acso4.o)'c.                               ",
"                     +.@4ooc$&)='''''*p[&_;o44...   {)'_.                               ",
"                  0s&=''''''[-acn4]+++.             .$'p>                               ",
"                  43''$00@.+.                       .n*'c.                              ",
"                  .#/'&:.                            {)'s+                              ",
"                    ]3'/q.                           ]m'p>                              ",
"                    .s'!n+                           .a'p>                              ",
"                     4-'/^.                          .s''s                              ",
"                      >-'/k                           k/'$.                             ",
"                      .;!'$@.                         {&'&4                             ",
"                       .s''$@                          $'&4.                            ",
"                        .c''a@                      .o3u*'c.                            ",
"                         >-'/q                      +cuuu!s.                            ",
"                         .k('l0.                 .]c[!uuu*30                            ",
"                          +#)'l4.              .k&''&&uuu**n+                           ",
"                           ]$''a]             .^&''-q_uuu*'$.                           ",
"                            .n='->.         .^-'=c@ @_uuu*''c.                          ",
"                             @$!'%0        +^-'*c@  ._uuuu!'m0                          ",
"                              +#)'l0    .@~&'*_].   +_uuuva!'$].                        ",
"                               .t)'l0..]_*'=c@      ._uuu-4:='3]                        ",
"                                @%'*;@@_*'-:@.      ._uuuv4]m'/q                        ",
"                                .@s''3&'=#..        @_uuuv4+^)'30                       ",
"                                  .a''(c]           +cuuuu;.+:('30.                     ",
"                                ..^['&#@.           .k&uuu;..@%'!c@                     ",
"                               .]$''_]               {&uuu;.  .s!!c.                    ",
"                              0_*'-k.                @,v&$>.   ]m'[k                    ",
"                            .0_*'-k+                  @{o0     .s''$0+                  ",
"                           .^['&k.                              .#('30                  ",
"                          .^-'*s.                                0m'/k                  ",
"                         +n!'a]                                  +^)'&;0.               ",
"                         .<!!#                                    .o3*'30               ",
"                         .n!!#                                     +43'l@               ",
"                         +<!!:                                      ]m'l]               ",
"                         .n!!#                                      @m'[k               ",
"                         .n!':                                      .c!!~               ",
"                         .<!!#                                       j=!~               ",
"                         .<'!:                                       :=!~               ",
"                         .n!!#                                       :=!1               ",
"                         +n!!:                                       :=!~               ",
"                         +n!!j                                       :=!~+              ",
"                         +n!!:                                       4-'30              ",
"                         +<!*#                                       ]m'30              ",
"                         +j'!:                                       .m'30              ",
"                         +n'!#                                       ]m'30              ",
"                         .<!!:                                       @m'l0              ",
"                         +<'*:                                       ]m'l]              ",
"                         +<'!:                                       .,!!n              ",
"                         .<!!:                                       +#*'n              ",
"                       ..@c'!:                                       +#*'$#@..          ",
"                   .0#%&!''*&o                                       +o&=*''),0+        ",
"                 .>c3('''=3,o@                                       ..q:~3*'=%;#@      ",
"                @a''[m,0.+                                                 +j3((&q      ",
"                .0^0.                                                                   "};
