/* XPM */
static char * zizi_copter15_xpm[] = {
"88 88 62 1",
" 	c None",
".	c #CCCCCC",
"+	c #D0D0CF",
"@	c #C7C5C4",
"#	c #9E9A96",
"$	c #5C5959",
"%	c #514E4B",
"&	c #32302E",
"*	c #0D0C0B",
"=	c #817D79",
"-	c #BCB9B5",
";	c #86827E",
">	c #000001",
",	c #080605",
"'	c #2A2827",
")	c #63605D",
"!	c #8A8784",
"~	c #585450",
"{	c #1B1918",
"]	c #B6B3B0",
"^	c #3A3633",
"/	c #C4C1BD",
"(	c #CAC8C6",
"_	c #A6A39F",
":	c #151413",
"<	c #6B6763",
"[	c #999693",
"}	c #94908C",
"|	c #25211E",
"1	c #B2AEAA",
"2	c #807DAE",
"3	c #504E9D",
"4	c #6C6AA7",
"5	c #B2AEBF",
"6	c #433F3C",
"7	c #706D69",
"8	c #7975A4",
"9	c #0A0A86",
"0	c #010083",
"a	c #333294",
"b	c #A3A0BA",
"c	c #3F3D97",
"d	c #5F5DA2",
"e	c #B9B6B9",
"f	c #908DB3",
"g	c #2C2B91",
"h	c #1D1C8B",
"i	c #040453",
"j	c #BFBDBD",
"k	c #0C0B2D",
"l	c #959290",
"m	c #3C3A3D",
"n	c #ADA9A7",
"o	c #98938D",
"p	c #494643",
"q	c #928E89",
"r	c #76716D",
"s	c #7C7772",
"t	c #A9A5A2",
"u	c #1D0D05",
"v	c #200F07",
"w	c #3B2B23",
"                                                                                        ",
"                                                                                        ",
"                                                                                        ",
"                                                                                        ",
"                                                                                        ",
"                                                                                        ",
"                                                                                        ",
"                                                                                        ",
"                                                 .++++++.                               ",
"                                            .@#$%&******&=-.                            ",
"                                         +@;&>>,'&)!;;!~{>>*&!..                        ",
"                                        .]~*>,^=-/....+(_~{>>:;(                        ",
"                                       (<>>^[@            .(}|>{=.                      ",
"                                     .1|>|[(23345      ..@.. .!*>6]...                  ",
"                                     .7>><(89000ab+   .54cc2. /%>,)d3e                  ",
"                                 @bb.;>,7/c09f5d903@.bg09h90c@ (<i0094.                 ",
"                                @a000009ac90d. +29045h0cj d0h2da90000cj                 ",
"                                ja0090000000d( .40925904..d0090000iki'l..               ",
"                                ja03;>,7.eh03++29000000g25f90dbe(%>*&*>>6[/.            ",
"                                @a0g)>*_ jg0g5bg099cc9000cb902+./^>&];'>>:~1...         ",
"                                 bh0i>><..5c0009ce. ..5a0hg09f.+!,>;.  /!m>>>6#.        ",
"                                  .@/%>*!. ..@@..     .ea0092..n|>^j.    .@n%*>,';@+    ",
"                                    +l*>6/             .b332. .!*>7.       ./!'>>*%].   ",
"                                     +[{>|1+                ./%>>~@            .o^>>:%].",
"                                       ]p>>{q..           .-7{>|#.              @!6*>,r+",
"                                       .]p,>{se+.       ..]%,>{!..            ./r*>>*</.",
"                                          .;|>>>|~srrs<^'>>>%t.          ..]!){>>'}@.   ",
"                                            .(n<m{*>>{{|%<n..        .(_6*>>>*'r/+      ",
"                                              ..jt~>{}n1(++        .._)|>>*&)l].        ",
"                                                 .)>{].        .(]_6>>,')#.             ",
"                                                 -'>'-       +._)'{>>:)1.+              ",
"                                                 e|><j    .]):>>,')s].                  ",
"                                                 ]{>7..j!m*>>|q-.                       ",
"                                               ..]{>7jqm*>>:p#.                         ",
"                                    ...(enr)$'{{>>>>>>>:%l@.                            ",
"                           .+1tq)p{{*>>>>>>|'&<rs~>,s]@+                                ",
"                     +((]nnr~'{*>>>>>*||'<=n]e.. <>{n.                                  ",
"                  js&*>>>>>>{&)r!]@++..         ]p>|]                                   ",
"                  ]m>>~jj(+.+                   np>|n                                   ",
"                  .[{>'[.                      .np>|1                                   ",
"                    @p>{_+                     .q|>%j                                   ",
"                    .s>,q+                     (qk><                                    ",
"                     ]&>{_.                    @=|><                                    ",
"                      e&>{_                    ]%{>)                                    ",
"                      .=,>~..                  /<>,s                                    ",
"                       .s,>$(                 (_$>{]                                    ",
"                        .s,>).                @_&>,7@                                   ",
"                         -&>{t               +#7^>>{#+                                  ",
"                         ._:>^j.            ._${uvu>{_.                                 ",
"                          +#{>^e.          +/$>*vvv*>*=.                                ",
"                           @~,,)@          +!*>uvvv6{>'_.                               ",
"                            .!:>^e.      ./$>,p|vvvr@~>,<(                              ",
"                             ($>>%j     .(r*>^7|vvvr+n'>{#.                             ",
"                              +#{>^j   .-^>*s/1wvvvr ./%>*;.                            ",
"                               .#:>^j .;*>&n._;^vvv|_. (%>,<@                           ",
"                                @%>*;._'>*#+/)6)vvvv)@ .t&>*;.                          ",
"                                ..r,>:>*7@. j^u6~vvv|#. .@%>*<(                         ",
"                                  +=>>&_.  j<vvvpwuvvs.  ..;*>^j                        ",
"                                  n&>:[+.  ;{vvvwwuvvs+   .@%>*;..                      ",
"                               ./<*>^].    #|uv|<wuvvs+     @7,>$/.                     ",
"                              .;*>&_.      ++((+]|vvvs.      .#:,^j                     ",
"                             +t&>{q(            -^uuv;+       /%>*<@                    ",
"                           .-)*>&].              (]]/+         .s*>mj.                  ",
"                           /)*>&_.                             .@%>*;.                  ",
"                         +n'>*o+                                 @7>>$/.                ",
"                         +q>,[                                    +}*>>6/               ",
"                         +},,#                                    +]6*>^@               ",
"                         +},,[                                      @%>^@               ",
"                         +},,[                                      @p>{_               ",
"                         .},,l                                      .r,,!               ",
"                         +}>,[                                       l*,!               ",
"                         +},,[                                       [*,!               ",
"                         +}>,[                                       [*,!               ",
"                         +}>,[                                       [*,!               ",
"                         .l,*l                                       [*,!+              ",
"                         +}>,#                                       ]&>mj              ",
"                         +},,[                                       @p>mj              ",
"                         +}>,[                                       @p>m@              ",
"                         +q>,[                                       @p>mj              ",
"                         +}>,[                                       @p>mj              ",
"                         +},*[                                       @p>mj              ",
"                         +}>,[                                       .=,,!              ",
"                         +}>,[                                       +#*,!              ",
"                       ++@r>,[                                       +#*>)#@+.          ",
"                   .j[%',>>*'n                                       .n'**>>{;@.        ",
"                 .erm:>>>*6;n.                                       ..t#!m*>:%=#@      ",
"                +$>>|p;/.+                                                 +lm:*'n      ",
"                ./_j+                                                                   "};
