/* XPM */
static char * zizi_copter1_xpm[] = {
"88 88 60 1",
" 	c None",
".	c #CCCCCC",
"+	c #D0CFCD",
"@	c #C8C6C7",
"#	c #9E9A97",
"$	c #5C5957",
"%	c #54514E",
"&	c #33302E",
"*	c #0C0B0A",
"=	c #7E7B78",
"-	c #BBB8B9",
";	c #CAC8C6",
">	c #86827D",
",	c #312A27",
"'	c #000001",
")	c #080706",
"!	c #282522",
"~	c #181716",
"{	c #B6B2AE",
"]	c #131211",
"^	c #3A3838",
"/	c #C5C4C3",
"(	c #1D1C1B",
"_	c #6A6764",
":	c #999693",
"<	c #94908C",
"[	c #807DAE",
"}	c #47459A",
"|	c #6C6AA7",
"1	c #B2AEBF",
"2	c #8B8886",
"3	c #413E3E",
"4	c #B9B6B3",
"5	c #706C69",
"6	c #7975A1",
"7	c #090886",
"8	c #010083",
"9	c #383695",
"0	c #A6A2BA",
"a	c #C3C0BF",
"b	c #63605E",
"c	c #615FA3",
"d	c #5855A0",
"e	c #9A97B6",
"f	c #1A198A",
"g	c #2C2B90",
"h	c #BFBDBB",
"i	c #040453",
"j	c #8A87B1",
"k	c #00002E",
"l	c #1D1C44",
"m	c #A8A5A2",
"n	c #4D4B48",
"o	c #ADAAA7",
"p	c #494644",
"q	c #76726F",
"r	c #7C7671",
"s	c #A6A29D",
"t	c #1F0E06",
"u	c #140A04",
"                                                                                        ",
"                                                                                        ",
"                                                                                        ",
"                                                                                        ",
"                                                                                        ",
"                                                                                        ",
"                                                                                        ",
"                                                                                        ",
"                                                 .+.+....                               ",
"                                            .@#$%&******&=-.                            ",
"                                         .;>,'')!&$>>>>$~''*&>;.                        ",
"                                        .{%]')^>-/;+...;#$('']>;                        ",
"                                       ;_')&:@            +@<(']>@                      ",
"                                     .{('(#;[}}|1      ..... .2)'34...                  ",
"                                     .5''5;6788890.   .1|}}[. a$')bcd1                  ",
"                                 .e1.=')5a}8fe1c78d@.1g88f78}h ._i888|.                 ",
"                                a9888788g978c+ +j78|-f89a d8f[c9788889h                 ",
"                                a98878888888c. ;|87[1f8|..d8888888ikil<..               ",
"                                ag8d>''5;-g8d..[7888888g[1e78de-;%']&*''3:a.            ",
"                                /98gb']m -g8g10g88f}}7887}0f8[++h^'&{>!'']%{...         ",
"                                 ef8i''_..1988879-. ..198fg8fj..>)'>.  a2^)''3#.        ",
"                                  .@an'*2. ..@@..     .-988f[..o!'^h.    .@o%*'),>@.    ",
"                                    .:]'3a             .0d}j. .2*'5.       +a>!'']%{.   ",
"                                     .#~'!o+                .an''%@            .<^'']%{.",
"                                       4p''(<..           .-5('(#.              a23*')q+",
"                                       .{p*'(q-..       ..{n)'~2;.            .aq]''*_a.",
"                                          ;>('''!%rqrq_^!'''pm.          ..42b(''&</+   ",
"                                            .;m_^~*''~~!%_o;.        .@m3*'''],qa.      ",
"                                              .+hm$'(<oo;+.        .@mb(''*&$:{.        ",
"                                                 ._'(4         .;4s^''',b#.             ",
"                                                 .b'({       .;mb,('']b{+.              ",
"                                                 ._'(4    +{b]''),b={.                  ",
"                                                 a3'(4+a2^*''(<-.                       ",
"                                               ..{('p{2^*'']p#.                         ",
"                                    ...;{mqb$!(~''''''']n:a.                            ",
"                           +.{m<bp((*''''''(!&b5=<('54/.                                ",
"                     +..4osq$,~*'''''*(!!_=o4-;..{('5.                                  ",
"                  h=&*''''''(&bq24a++..          {('5.                                  ",
"                  {^''$-a....                    {('5.                                  ",
"                  .#~'!:.                        {('5.                                  ",
"                    /3'(m.                       {('5.                                  ",
"                    .r))<+                       {('5.                                  ",
"                     {&'(#.                      _']:.                                  ",
"                      4&'(s                      _'!o                                   ",
"                      .=)'$@.                    _'!o                                   ",
"                       .=)'$@                    b'({                                   ",
"                        ;r)'b@                  .h^'3h                                  ",
"                         -&'(o                 .@5]'({                                  ",
"                         .s~'^h+              .4!ttu'^h+                                ",
"                          .#~'^{.             m,utttu'~s.                               ",
"                           /$''b@            /%'uttt!)'$@                               ",
"                            .2]'^4.        .s~'~ttttr>*'^h                              ",
"                             ;$')nh       .m,'*5,tttq/%')5@                             ",
"                              .#~'^h    .;$')_@h,tttq..>*'^h.                           ",
"                               .#]'^h+ .#(',m. {!tttq. .#]',o                           ",
"                                @%'*>. -3'*=.  h,tttq.  @_)'$a.                         ",
"                                ..q)'^,''&o    h,tttq.   .#]',s.                        ",
"                                  +#*')b4.     -,tttq.     /%')5/                       ",
"                                  @_*'&4       -&tttr.     .o,'(#.                      ",
"                                .2*'&m.         @omh        ./%')2+                     ",
"                              .#&'*_@.                        /_))$a                    ",
"                              o&'*5/                           {^'*>+                   ",
"                           ./_*'&{.                            .@q*'^h.                 ",
"                          .m%*'&m.                               a%')_/                 ",
"                         ;p''&m.                                  .=*'!o+               ",
"                         +<))#                                      /3'3@               ",
"                         .<'*#                                      /n'^@               ",
"                         +<'):                                      /n'^/               ",
"                         .<'):                                      @p'(m               ",
"                         .<)):                                      .q))2               ",
"                         +<')#                                       <*)2               ",
"                         +<)):                                       :*)2               ",
"                         .<')#                                       :*)2               ",
"                         +<'*:                                       :*)2               ",
"                         .2)):                                       :*)2.              ",
"                         +<))#                                       {&'^h              ",
"                         .<))#                                       /p'^h              ",
"                         +2)):                                       .p'3h              ",
"                         +<'):                                       @p'^a              ",
"                         .<)):                                       /p'^a              ",
"                         .<))#                                       @p'^a              ",
"                         +<)*:                                       .=)'2              ",
"                         +<)):                                       +#*)<              ",
"                       .+;q'):                                       .#*'$#/+.          ",
"                   .a#%!)''*!o                                       +o!]*''~>a+        ",
"                 .4q^]'''*3>o;                                       ..m#23)']%>#@      ",
"                ;$''(n>a..                                                 .<3]],m      ",
"                .ash.                                                                   "};
