/* XPM */
static char * zizi_copter14_xpm[] = {
"88 88 62 1",
" 	c None",
".	c #CCCCCC",
"+	c #D0CFCD",
"@	c #C8C6C6",
"#	c #9E9A98",
"$	c #5B5854",
"%	c #54504D",
"&	c #2F2C29",
"*	c #0C0A09",
"=	c #100E0D",
"-	c #36312E",
";	c #807D79",
">	c #BCB9B5",
",	c #84817D",
"'	c #000001",
")	c #060509",
"!	c #2A2726",
"~	c #8A8684",
"{	c #141312",
"]	c #080807",
"^	c #B5B3B0",
"/	c #11100F",
"(	c #3B3938",
"_	c #C5C4C3",
":	c #CAC8C6",
"<	c #A7A4A0",
"[	c #1C1B19",
"}	c #666361",
"|	c #999693",
"1	c #97938E",
"2	c #22211F",
"3	c #AFACAA",
"4	c #7B78A8",
"5	c #413F98",
"6	c #6865A5",
"7	c #B5B2C0",
"8	c #6C6966",
"9	c #0D0D88",
"0	c #020183",
"a	c #050479",
"b	c #302F93",
"c	c #A6A3BB",
"d	c #C3C0BE",
"e	c #56539F",
"f	c #9795B6",
"g	c #080605",
"h	c #756F6B",
"i	c #1E1D8B",
"j	c #03034A",
"k	c #8A87B2",
"l	c #BEBCBE",
"m	c #8380AF",
"n	c #464341",
"o	c #4C4947",
"p	c #908C89",
"q	c #ACA8A5",
"r	c #181715",
"s	c #B9B6B3",
"t	c #787572",
"u	c #5F5C5B",
"v	c #1F0E06",
"w	c #94908C",
"                                                                                        ",
"                                                                                        ",
"                                                                                        ",
"                                                                                        ",
"                                                                                        ",
"                                                                                        ",
"                                                                                        ",
"                                                                                        ",
"                                                 .+.++++.                               ",
"                                            .@#$%&**=**=-;>.                            ",
"                                         .@,&'')!-$~,~,${'']-~..                        ",
"                                        .^%/')(;>_.+...:<$[''{,:                        ",
"                                       :}')-|@            +@12'{;.                      ",
"                                     .32'2|:45567      ..@.. .~]'(^...                  ",
"                                     .8''8:490a0bc+   .76554. d$')}6e7                  ",
"                                 @fc+;g)hd509f7600e_+cb00i005d :8j0096.                 ",
"                                @b00000ab5906. +k9067i05l e0im6b90000bd                 ",
"                                db0000000000e: .60047i06.:e000000ajjj!1..               ",
"                                lbae,gg8@7i0e.+40000000bm7f90ef7:%'/-*''(|_.            ",
"                                @b0i}'/< lb0b7cb0095590005ci04++l('&^,!''{%3...         ",
"                                 fi0j''8..75000057+ ..7b0ib09f..~]',+  d~()'gn#@        ",
"                                  .@_o'=p. .@@@..     .7b0094.+q2'(l.    ._q%]')&,:.    ",
"                                    .1/'nd             .ceem. .~]'h:       +d~2''/%3.   ",
"                                     .|r'23+                .dog'%_            .1(''{%^.",
"                                       so''[p.+           .>h['[#+              _~(*']t.",
"                                       .^og'[t^.+       ..so''r~..            .dh=''/}d.",
"                                          .~2'''2%tttt8-2)''o<.          ..^p}[''&1_+   ",
"                                            .:<}(r[*''{2%8q:.        .:<n]'''/&td.      ",
"                                              ++l<<%'[|3:++        ..<}2''=-}1^.        ",
"                                                  ^['}@        .:s<(''g&u#.             ",
"                                                 +q['h.      +.<}![''/u^+.              ",
"                                                 .}'r3.   .s}{'')&ut^.                  ",
"                                                 s!'!>.d~(*''2p>.                       ",
"                                               ++s['}>p(]''{o#.                         ",
"                                    .:.@s<h}$![r'''''''{o|_.                            ",
"                           +.^<p}n[[*''''''2!-}h;%'23>l+                                ",
"                     +.:sqqh$&r='''''*22!};q^s.+l('23                                   ",
"                  lt&/''''''2&}tp^_+++.         32'8                                    ",
"                  ^(''$>d:...                  .8'=1                                    ",
"                  .#r'2|.                      :h'[s                                    ",
"                    _n'[<+                     s!'&>                                    ",
"                    :t))p+                     s2'}.                                    ",
"                     ^-'[<.                   +~*'8+                                    ",
"                      s-'[<                   +h'[s                                     ",
"                      .;)'$:.                 :$'[^                                     ",
"                       +;)'$.                 s2'}.                                     ",
"                        .t]'}@               .~*'8:                                     ",
"                         s&'[q               @$'*~+                                     ",
"                         +<{'(l.            :u**g'&<.                                   ",
"                          .#{'(s.          .h*vvv2*'&<.                                 ",
"                           _$))}.          d(*vvv8h*'&<                                 ",
"                            .~{'(s.      .q&'*vvvh.>(']8@.                              ",
"                             @$''%l     .@$''*vvv8: <-']8@                              ",
"                              +#{'(l    q&'r~-vvvh.  +#r'!q.                            ",
"                               +#{'(l..~*'-sl-vvv$@:   >-'[#.                           ",
"                                @%'],:<!'{#+l-vvv!#.   .;*'&<.                          ",
"                                .:t)'[]'%_+ +q&vvvh+     _%'),.                         ",
"                                  +;''-<.    ^-vvvh+     .@%'*~.                        ",
"                                 +<&'{#+.    ^-vvv%d      +<{'&<                        ",
"                               .3-'*h_       :hvvv->        >(')}d.                     ",
"                              _}*'(^.         .d^^:.         .<&'[<                     ",
"                            .d8*'-<.                          .t]'$_                    ",
"                           +<-'/1.                             .#{'&#+                  ",
"                          .#-'*h_                              .:t*'(l                  ",
"                         .<2'}_                                  .q&'2#+                ",
"                         +w)]#                                    +<r''n:               ",
"                         +w)]#                                    .@,!'(d               ",
"                         .w))|                                      _o'(_               ",
"                         .w'*#                                      @o'2<               ",
"                         .w)]|                                      .t))p               ",
"                         .w)*#                                       1=)~               ",
"                         .p']#                                       |=)~               ",
"                         +wg]|                                       |=)~               ",
"                         .w'*|                                       |/]~               ",
"                         +1)]|                                       |*]~.              ",
"                         +w'*|                                       ^-'(l              ",
"                         .w)]|                                       @n'(l              ",
"                         +w']|                                       @o'(d              ",
"                         .1)*#                                       _o'(l              ",
"                         .w)*|                                       .n'(d              ",
"                         .w))|                                       _n'(d              ",
"                         +w)]|                                       .;)'p              ",
"                         .w)]|                                       +|*)p              ",
"                       ..:t']|                                       +#*'u#_+.          ",
"                   .d#%!g''*!q                                       +3!/*''r,_.        ",
"                 .sh({'''*n,<.                                       ..<#,(*'/%;|@      ",
"                :}''2o,l+.                                                 +1({/&q      ",
"                .d<l.                                                                   "};
