/* XPM */
static char * zizi_copter2_xpm[] = {
"88 88 62 1",
" 	c None",
".	c #CCCCCC",
"+	c #D0CFCD",
"@	c #C3C0BE",
"#	c #9E9B98",
"$	c #5C5958",
"%	c #54514E",
"&	c #2F2C29",
"*	c #0B0B0A",
"=	c #11100F",
"-	c #32302E",
";	c #817D7A",
">	c #BDBBBB",
",	c #C9C7C7",
"'	c #85827E",
")	c #000001",
"!	c #070707",
"~	c #292727",
"{	c #625F5C",
"]	c #161513",
"^	c #8D8681",
"/	c #B5B2B1",
"(	c #B9B6B3",
"_	c #C5C4C3",
":	c #A6A29D",
"<	c #1D1A19",
"[	c #686564",
"}	c #3A3737",
"|	c #95918D",
"1	c #22201E",
"2	c #7B78A7",
"3	c #434199",
"4	c #6A68A6",
"5	c #8B8987",
"6	c #403C3A",
"7	c #6E6B69",
"8	c #0B0A87",
"9	c #010083",
"0	c #302F93",
"a	c #ADAABD",
"b	c #5A57A0",
"c	c #9A98B6",
"d	c #817EAE",
"e	c #726F6B",
"f	c #1B1A88",
"g	c #6D6864",
"h	c #03034A",
"i	c #050578",
"j	c #8885B1",
"k	c #22218E",
"l	c #4F4C49",
"m	c #484644",
"n	c #999693",
"o	c #A8A5A2",
"p	c #AFACA8",
"q	c #ACA8A5",
"r	c #928E8A",
"s	c #797672",
"t	c #100E0D",
"u	c #1F0E06",
"v	c #140A04",
"w	c #14132E",
"                                                                                        ",
"                                                                                        ",
"                                                                                        ",
"                                                                                        ",
"                                                                                        ",
"                                                                                        ",
"                                                                                        ",
"                                                                                        ",
"                                                 ...++...                               ",
"                                            .@#$%&*===*=-;>.                            ",
"                                         .,'&))!~-{''''$]))!-^,.                        ",
"                                        ./%=)!-'(_,+....:$<))]',                        ",
"                                       ,[))}|,            ..|1)];.                      ",
"                                     ./1)1|.2334/      ...,. .5!)6(...                  ",
"                                     ,7))7,289980a.   .a4332. @%)![4b/                  ",
"                                 ,ca@d!)e@398ca489b_.a099f893@ .gh9984.                 ",
"                                _099i99i0389b. .j894af93_ b9kdb0899990>                 ",
"                                _09989999999b, .4982af94..b998999ihhh~|..               ",
"                                @09b'!)e,>k9b..d89999990jac89bca.l)=-*))mn@.            ",
"                                _09k[)]o >090ac09983389993c892++>})-/'~))]%p...         ",
"                                 cf9h))g../399983>. ../09f098c..'!)'.  @56!))6#.        ",
"                                  .,@l)=5. .,,,..     .>0998d..p1)}>.    .,q%*)!-',.    ",
"                                    .|=)6@             .ab3j. .'!)e.       .@'1))=%p.   ",
"                                     .#])1p+                .@l))%,            .|}))]%/.",
"                                       (m))<r..           .>e<)<#+              _56!)!s.",
"                                       .(m!)<s(..       ..(l!)<5..            .@et))=[@.",
"                                          ,'1))!1%ssssg}1)))lo.          ../r{<))-|_+   ",
"                                            .,o[6]*)!]]~%gp..        .,o6!)))=&s@.      ",
"                                              .+>o$)<|op,..        ..o{1))=-{|/.        ",
"                                                 .[)1/         .,(:6))!&{#.             ",
"                                                 .[)1(       +.o[~<))]$/+.              ",
"                                                 +g)1(    ./{]))!~{s/.                  ",
"                                                 .g)<p.@^6*))1|(.                       ",
"                                               ...{))gr6*))]m#.                         ",
"                                    ...,(qe{$~<])))))))=l|_+                            ",
"                           +./or[m<<t))))))1~-[esq#<){_+                                ",
"                     +..>p:e$&<=)))))*11~[;p/(... /<)e+                                 ",
"                  >s-=))))))1-{s5(_++..           /<)e.                                 ",
"                  /6))$>>,...                     /<)7.                                 ",
"                  .#])1n.                         /<)e+                                 ",
"                    _m)<o.                        /<)7.                                 ",
"                    .s!!|+                        /<)e+                                 ",
"                     /-)<:.                       >-)1(                                 ",
"                      (-)<o                       .g)1(                                 ",
"                      .s!)$..                     .[)1(                                 ",
"                       .s!)$.                     .g)1(                                 ",
"                        .s!){,                    .'**'.                                ",
"                         (-)<q                   .q-))$,                                ",
"                         .:])}>.                .#])))<:.                               ",
"                          .#])}/.             .:-!uuuv)]o.                              ",
"                           _$)!{,            .:-))uuuuv){,                              ",
"                            .5=)}(.        .,g!)$:6uuuuv){,                             ",
"                             ,$))l>       ._g!)-q+p6uuuu)<:.                            ",
"                              +#])}>     +#<)~o.  .>6uuuv)<#.                           ",
"                               .#])}>. +:-)*e_.     guuu&6)!'+                          ",
"                                ,%)!;..o&)*7_.      guuu}5])}>                          ",
"                                .,s!)ml)!g,         guuu<^q~)<#.                        ",
"                                  +#]))-o.          /~uuus+_%)![>.                      ",
"                                  _g!)-o.           @luu~n .q-)*5.                      ",
"                               ._g*)-o.              .++.   .,%)*'+                     ",
"                              +#1)~:.                         ,e=)&q.                   ",
"                             .o~)t;.                           _7!){,                   ",
"                            @6)*e_                              .s)){.                  ",
"                           @[*)l@                                /-)<#..                ",
"                         +#*)-o.                                 ._l))*|+               ",
"                         +|!*#                                    .+(6)m,               ",
"                         +|)!#                                      _l)}@               ",
"                         .|)*n                                      _l)}_               ",
"                         .r!!n                                      ,m)w:               ",
"                         .r!!n                                      .s!!5               ",
"                         .|!!#                                       |t!5               ",
"                         .r)!n                                       nt!5               ",
"                         .r!!n                                       nt!5               ",
"                         +r!!n                                       n=!5               ",
"                         .r!!|                                       n=!5.              ",
"                         +|!!#                                       /-)6>              ",
"                         .r)!#                                       ,m)6>              ",
"                         +|!!n                                       ,m)6>              ",
"                         +|)!#                                       ,m)6@              ",
"                         +|)!n                                       _m)6>              ",
"                         +|!!#                                       .m)6_              ",
"                         +|!!n                                       .'!)5              ",
"                         +|!!n                                       +#*!5              ",
"                       .+,e)!n                                       +#*){#_+.          ",
"                   .@#%1!))*~q                                       .p~=*))]'@+        ",
"                 .(s6])))t6'o.                                       ..o#'6*)t%'n,      ",
"                .$))1l'@..                                                 .|6]]&p      ",
"                .@:>.                                                                   "};
